/* XPM */
static char *c7aa28100c9d4b649f2e6feafd6b7233SdiX8zW73XoJPXnP[] = {
/* columns rows colors chars-per-pixel */
"64 64 234 2 ",
"   c None",
".  c #19181E",
"X  c #181A37",
"o  c #0D142F",
"O  c #241F23",
"+  c #182338",
"@  c #272225",
"#  c #2D2A33",
"$  c #312D3A",
"%  c #37313E",
"&  c #192A42",
"*  c #1C304B",
"=  c #272747",
"-  c #26364B",
";  c #393548",
":  c #292E54",
">  c #2E3356",
",  c #373053",
"<  c #2E3365",
"1  c #353965",
"2  c #443C4A",
"3  c #4A374B",
"4  c #3E495F",
"5  c #3B426B",
"6  c #37536E",
"7  c #3C4273",
"8  c #3F497D",
"9  c #3A5A7B",
"0  c #26496E",
"q  c #49424E",
"w  c #4C4656",
"e  c #554858",
"r  c #564542",
"t  c #79585D",
"y  c #6B5057",
"u  c #494868",
"i  c #514E6A",
"p  c #575366",
"a  c #444B78",
"s  c #47587B",
"d  c #575779",
"f  c #4D526E",
"g  c #675E7A",
"h  c #725566",
"j  c #586277",
"k  c #766467",
"l  c #6E697B",
"z  c #CA3A72",
"x  c #B94B78",
"c  c #886B78",
"v  c #D4427A",
"b  c #C24F7C",
"n  c #D66E7B",
"m  c #C5AA6D",
"M  c #365C82",
"N  c #3F6285",
"B  c #434C84",
"V  c #565989",
"C  c #545E94",
"Z  c #4D5181",
"A  c #586683",
"S  c #567086",
"D  c #5A649C",
"F  c #4B6985",
"G  c #7B6E8C",
"H  c #63768D",
"J  c #777689",
"K  c #666997",
"L  c #6C739E",
"P  c #787595",
"I  c #736E8F",
"U  c #5F6CA9",
"Y  c #6B73A1",
"T  c #9B7C88",
"R  c #8D7794",
"E  c #A77693",
"W  c #BC7E9E",
"Q  c #D55582",
"!  c #C95088",
"~  c #D47A86",
"^  c #D46C8C",
"/  c #E96C9B",
"(  c #E76F94",
")  c #ED77A5",
"_  c #F472A2",
"`  c #EF598F",
"'  c #7C8999",
"]  c #9A8488",
"[  c #898899",
"{  c #97899A",
"}  c #90969E",
"|  c #A4869C",
" . c #B19196",
".. c #B9A094",
"X. c #8788A7",
"o. c #9584A4",
"O. c #8C97AA",
"+. c #9799A9",
"@. c #A68AA6",
"#. c #B58FAB",
"$. c #A897A7",
"%. c #B394AA",
"&. c #AD99B2",
"*. c #B695B3",
"=. c #B39CB4",
"-. c #BB9CBA",
";. c #BC99B5",
":. c #9EA0B4",
">. c #A4A2A9",
",. c #BDACA9",
"<. c #A8A7B9",
"1. c #B7A7B9",
"2. c #BAB4B9",
"3. c #BEB3A9",
"4. c #C88795",
"5. c #C39A98",
"6. c #DB919C",
"7. c #E2979A",
"8. c #D3AB99",
"9. c #CFA19E",
"0. c #C59DA9",
"q. c #C59DB6",
"w. c #D58FA8",
"e. c #FB8EA9",
"r. c #C9A7A6",
"t. c #D6ACA8",
"y. c #D9B8AB",
"u. c #C3A2BD",
"i. c #CAA7B9",
"p. c #D7A9B8",
"a. c #CBB6B1",
"s. c #D8BDB6",
"d. c #EAACA7",
"f. c #E6B7A9",
"g. c #F1B6AC",
"h. c #E5B7B3",
"j. c #F9BBB8",
"k. c #DAC5B8",
"l. c #EBC5B3",
"z. c #EBCBBA",
"x. c #E7C8B8",
"c. c #F3C5B3",
"v. c #F5CBBA",
"b. c #E7D2BC",
"n. c #F5D4BE",
"m. c #ECC3AF",
"M. c #AA98C2",
"N. c #BDA9C7",
"B. c #BABAC4",
"V. c #BDBCC5",
"C. c #AEABC1",
"Z. c #C4A4C4",
"A. c #CCA5C3",
"S. c #C5AAC7",
"D. c #CAA9C5",
"F. c #C5ACC9",
"G. c #CBABCB",
"H. c #D2ACCC",
"J. c #D1AEC5",
"K. c #C8B2C8",
"L. c #D4B3CB",
"P. c #D5B5C6",
"I. c #D3AED1",
"U. c #CAB3D1",
"Y. c #D3B4D2",
"T. c #D5BAD4",
"R. c #DABCD4",
"E. c #DAB4D9",
"W. c #DBBCDB",
"Q. c #D7B6D8",
"!. c #CFADD0",
"~. c #DEBEE1",
"^. c #E5BFE3",
"/. c #BFC2CD",
"(. c #C8C6CA",
"). c #D9D2CA",
"_. c #CBCDD4",
"`. c #C7C9D4",
"'. c #DDC2DC",
"]. c #DAC6D4",
"[. c #D9D5D4",
"{. c #DAD8D9",
"}. c #D1D3CF",
"|. c #E6C8C6",
" X c #F5CEC6",
".X c #EDDDCA",
"XX c #E9D7C7",
"oX c #F5DAC5",
"OX c #FCDCC4",
"+X c #F4DFCB",
"@X c #FAD8C5",
"#X c #E3CCDD",
"$X c #E2C8D8",
"%X c #E4D9DC",
"&X c #FADFD2",
"*X c #F3E2CC",
"=X c #FCE3CB",
"-X c #FEE4CA",
";X c #EDE4D3",
":X c #E6E3DA",
">X c #FFE6D2",
",X c #FDEAD3",
"<X c #F5EDDB",
"1X c #FAEEDA",
"2X c #F2E6D4",
"3X c #FCF2DD",
"4X c #FEF5DC",
"5X c #EEE1CD",
"6X c #DEC3E1",
"7X c #D6DDE1",
"8X c #CCD6E0",
"9X c #E3C3E3",
"0X c #E6CCE4",
"qX c #E9C9E7",
"wX c #EAD3E6",
"eX c #F2CFF0",
"rX c #F9D9F5",
"tX c #F0D7ED",
"yX c #D9E0E2",
"uX c #E5E5E5",
"iX c #E9E9E4",
"pX c #E7E9E8",
"aX c #F3ECE9",
"sX c #EFF1EA",
"dX c #FCF6E3",
"fX c #FEF9E6",
"gX c #F2F1EE",
"hX c #FEFDEB",
"jX c #F8F4E5",
"kX c #F4F5F2",
"lX c #F6F8F3",
"zX c #FEFEF3",
"xX c #FEFEFC",
"cX c #F4F8F8",
/* pixels */
"                                                                                                                                ",
"                                                                                                                                ",
"                                                                                                                                ",
"                                                                                                                                ",
"                                                                                                                                ",
"                                                                                                                                ",
"                                                                                                                                ",
"                                                                '.-.                                                            ",
"                                                                wX=.                  %X                                        ",
"                                                              #X9XZ.Z.                                                          ",
"                                                              ^.H.*.-.              q.    $X$X                                  ",
"                                                              qXZ.| u.Y.W.G.Z.P.J.*.;.Z.E.eXJ.                                  ",
"                                                            Y.9X#.F.W.6XQ.G.W.Q.0X'.D.!.E.E.%.                                  ",
"                                                            U.I.u.W.'.6XF.G.6XT.S.W.#XL.E.*.                                    ",
"                                                            N.A.Q.T.6XR.-.!.T.R.Q.D.0XwX-.@.                                    ",
"                                                            -.D.Y.Y.W.U.#.i.G.L.J.Y.].jX].                                      ",
"                                                          1.S.A.S.Y.G.q.h.z.A.A.t.Z.q.0XaX                                      ",
"                                                          C.F.G.Z.I.A.h.1X@Xp.H.|.x.;.W.$X                                      ",
"                                                          W T.S.-.G.i.f.k.b.f.h.|.v.0.i.qX                                      ",
"                                                          ) N.R *.!.4.T ; t oXl.c.y h 0.Q.                                      ",
"                      R.                              _ ` W E ~ J.G.r.].M.1.zXjX>X*.=.t.I.'.                                    ",
"                      Q.#X                        / ) ` Q Q ( l.XXZ.i.x. X@XdXhXhXaX*Xt.H.$X                                    ",
"                        rX                        / _ v ! v b 7.d.L.p.z.@X=XdX<X<XfXoXr.L.$X                                    ",
"                        eX#X                        ( x 8.x v ) 4.L.H.XXhXhX*Xg.d.dXdXi.Y.                                      ",
"                        E.9X                      ) ) ! x z Q     =.I.p.+XhX Xj.v.xX*X  T.                                      ",
"                        I.9X$X                      ^ n ^ ^ e.e.  p  .h.h.3XdX>XdX;X  u.                                        ",
"                        H.I.'.                      4.m ~ w.' p > e 4.9.d.m.h.3.                                                ",
"                        H.E.R.                    #XD.$.E p $ = o ; 7.~ 7.7.n 3 o p                                             ",
"                        u.E.qX                    K.W.F.2.(.j - + X 5.c.d.n g.c & s                                             ",
"                        q.I.'.#X                  %X'.i.gX:X2.4 - = k OXc.n j.[ M O.V.                                          ",
"                          D.W.0X                $X0XD.`.cXxXgXO.9 9 9 k.,Xf.z.j F +.).                                          ",
"                          *.6XeX|.            $XqXQ.N.V.7XxXxX%XS F 0 } dX5X.X6 F {.lX                                          ",
"                            W.6X$X          R.H.9XF.  ,.uXlXxXgX>.S S 6 2.iX(.6 ' xXiX                                          ",
"                            u.W.0X            ^.S.    1.pXkXkXcX(.1.5 s +.xXH S [.cX(.                                          ",
"                              ^.9XR.        I.G.$.    2.%XxXsXzX}.iX<.a f l A _.{.gX_.                                          ",
"                              A.qXJ.        I.@.    _.O.J iXgX(.P 7XxX<.f i xXuXR {.O.                                          ",
"                              q.9Xq.      u.&.@.    `.2.1 d I Y K uXpX:.R g {.} u X.X.                                          ",
"                                q.A.      o.@.*.  8X/./.I u A { a.cXB.G [ g r.9.T {                                             ",
"                                q.N.&.  #.E o.<.7X8XB./.<.5.r.c.x.`.`.+.+.  oX>X@X                                              ",
"                                  =.U.    c >.pXyXV.`.V.<.s.4XdX%XB.(.(.g   *XhX3X                                              ",
"                                    U.C.    sXuX[.cXpX{.<.,.1XhX<X[.uX[.    oXzX<X                                              ",
"                                    @.N.*.l _.iX:XzXlXgX_.$.*XhX;XiX(.      XXzXjX                                              ",
"                                      P 1 & ; [.:XgXxXkXkX1.b.hX1X:X:X      1XzX3X                                              ",
"                                      : < 7 1 2 {.lXxXlXpX`.k.hXdXhXxX      3XhXdX                                              ",
"                                    = < a a U 7 f kXxXlXiX/.k.fXfX:XP 7     fXhX3X                                              ",
"                                    < B C 7 C D 1 f uXxXzX[.|.4XzXa.< D V { dXhX1X                                              ",
"                                  5 B C D 7 C D a = ; [ >.[ ,.4XzX).a K K | 4XzX*X                                              ",
"                                  a M C D V C D Z 1 a o o o q 1XhX.Xd I 5.v.4XhX+X                                              ",
"                            2 p P 7 7 C K V G { $.] G d : > = XXhX<XI R -XoX3XfX*XdX                                            ",
"                        *.&.e q > 1 5 K L R l.,X4XhX|.] : > X r.hX1XP | -X*X3XdX;XhXhXb.                                        ",
"                    K.=.-.  2 ; # , u Y P h.,X1XdXfXhX,Xp - > { hX<XT c.-XOX4X1X2XhXhXzX.X                                      ",
"                  J.u.      % # @ = d o.t.=X-X4XdXfXfXhXb.u s R 4X<X8.@X-XOX,X1XjXfXdXfXzX.X                                    ",
"                  L.        ; # # $ q ] -Xn.,X,XdXhXfXfXzX>.L X.5X,Xr 5.v.l.-Xb.<XhXfXdXfXzXXX                                  ",
"                  tX        % # $ 2 @ @ y.-XOX4XdXfXfXfXfX;X[   =X,Xy 8.>Xl.-Xm.z.*X3XhXdXzX<X                                  ",
"                  rXD.    ] q #       . @ ..-X-XdXdXfXfXfXhXb.  1XhX1X  =X*XdX3Xb.f.c.OX3XzX+X                                  ",
"                  !.H.      { w w       # # k m.,XhXdXhXfXhX3X  oX3X4X.X  XXOXoX4XXXz.n.=Xn.                                    ",
"                  F.~.qXU.  P.            2 k c.f.*XhXfXfXfXzX2Xy.4Xz.z.    *Xm.b.                                              ",
"                        '.                  r.xX1Xm.+XfXdXfXhX2X                                                                ",
"                                              ;XdXfXc.>XhXdXhX<X                                                                ",
"                                                  5X-X@X,XhXzX*X                                                                ",
"                                                       X@XoXXX                                                                  ",
"                                                                                                                                ",
"                                                                                                                                ",
"                                                                                                                                "
};
