/* XPM */
static char *f00cbd4897a84b568536e76a58e14e2fobMkV89EcdVuv91U[] = {
/* columns rows colors chars-per-pixel */
"64 64 238 2 ",
"   c #0D0D0D",
".  c #070705",
"X  c #130E0C",
"o  c #1C0C0F",
"O  c #13120E",
"+  c #1C150B",
"@  c #0E0D11",
"#  c #130E14",
"$  c #131313",
"%  c #1A1514",
"&  c #1C1B16",
"*  c #161619",
"=  c #1A151B",
"-  c #16191B",
";  c #1B1A1B",
":  c #171815",
">  c #0F1412",
",  c #271B0D",
"<  c #231B14",
"1  c #221C1C",
"2  c #291C16",
"3  c #2B1610",
"4  c #1D211E",
"5  c #1F2315",
"6  c #2C2315",
"7  c #23231C",
"8  c #2B231C",
"9  c #2A2A1E",
"0  c #37291B",
"q  c #3F381E",
"w  c #1D1C22",
"e  c #1D1D2B",
"r  c #1C1D33",
"t  c #211E23",
"y  c #281E25",
"u  c #1E2123",
"i  c #1C2039",
"p  c #232225",
"a  c #2A2524",
"s  c #2C2B24",
"d  c #24242A",
"f  c #2B252B",
"g  c #27292C",
"h  c #2B2A2C",
"j  c #262825",
"k  c #332C2B",
"l  c #342926",
"z  c #2E3127",
"x  c #33332B",
"c  c #3C332A",
"v  c #373426",
"b  c #2C2C33",
"n  c #292837",
"m  c #322D32",
"M  c #362F37",
"N  c #2C3134",
"B  c #353234",
"V  c #3B3434",
"C  c #3B3B34",
"Z  c #34343B",
"A  c #3D3B3C",
"S  c #39373A",
"D  c #472F1D",
"F  c #44382A",
"G  c #433B34",
"H  c #433C3B",
"J  c #453937",
"K  c #583936",
"L  c #502E27",
"P  c #3D4138",
"I  c #4C4333",
"U  c #4D433C",
"Y  c #46463B",
"T  c #534A3B",
"R  c #564838",
"E  c #5E513D",
"W  c #4F4529",
"Q  c #7A453E",
"!  c #655739",
"~  c #6F503A",
"^  c #786739",
"/  c #3D3C44",
"(  c #373945",
")  c #2A3041",
"_  c #443D43",
"`  c #4C3B41",
"'  c #533F41",
"]  c #3B434D",
"[  c #3D4144",
"{  c #3D4654",
"}  c #444444",
"|  c #4B4444",
" . c #43444B",
".. c #4C4A4B",
"X. c #4A4949",
"o. c #544A44",
"O. c #534C4B",
"+. c #584947",
"@. c #5C5245",
"#. c #5C544B",
"$. c #58564A",
"%. c #464A54",
"&. c #574D52",
"*. c #4D5359",
"=. c #5C5452",
"-. c #585759",
";. c #684A48",
":. c #784C47",
">. c #665849",
",. c #745648",
"<. c #635654",
"1. c #645A53",
"2. c #665B5A",
"3. c #695959",
"4. c #765B57",
"5. c #654F52",
"6. c #696359",
"7. c #77665A",
"8. c #73674E",
"9. c #565B63",
"0. c #4F5762",
"q. c #695C63",
"w. c #5E6367",
"e. c #6A6667",
"r. c #746B62",
"t. c #736B6A",
"y. c #786767",
"u. c #7A7369",
"i. c #6A6B75",
"p. c #776D74",
"a. c #797578",
"s. c #5E635F",
"d. c #80583E",
"f. c #8D554D",
"g. c #83665B",
"h. c #86765A",
"j. c #8A7A55",
"k. c #866D68",
"l. c #956B66",
"z. c #877669",
"x. c #957766",
"c. c #8B7B74",
"v. c #857A78",
"b. c #967977",
"n. c #826F71",
"m. c #AE7674",
"M. c #948C58",
"N. c #968E5A",
"B. c #A2995D",
"V. c #8B816A",
"C. c #968A67",
"Z. c #9B9269",
"A. c #8A847A",
"S. c #978877",
"D. c #9A9475",
"F. c #A59A6A",
"G. c #A39B74",
"H. c #A59978",
"J. c #B08D79",
"K. c #ACA373",
"L. c #AAA47B",
"P. c #B6A979",
"I. c #B2A870",
"U. c #C2997E",
"Y. c #7E7A83",
"T. c #877C85",
"R. c #88848A",
"E. c #958B8B",
"W. c #968885",
"Q. c #9A958A",
"!. c #8C8A92",
"~. c #938C95",
"^. c #9A949B",
"/. c #879097",
"(. c #A78B86",
"). c #B28C8A",
"_. c #A6998A",
"`. c #A69896",
"'. c #B39991",
"]. c #ABA688",
"[. c #B8AA84",
"{. c #B9B284",
"}. c #B4A99D",
"|. c #B0AA95",
" X c #9E9BA2",
".X c #9C95A1",
"XX c #A39BA4",
"oX c #A79CA9",
"OX c #ACA3AC",
"+X c #A8A1A6",
"@X c #B1A6AE",
"#X c #B4A8A9",
"$X c #BBB5AA",
"%X c #ADA6B2",
"&X c #B2A6B1",
"*X c #B4AAB3",
"=X c #B9AEB5",
"-X c #BAAEBA",
";X c #B5ABB9",
":X c #BDB3BB",
">X c #B9B3B6",
",X c #CB9A92",
"<X c #C9AC8F",
"1X c #C1B6BE",
"2X c #C4BABB",
"3X c #C3BAB3",
"4X c #C1B6AB",
"5X c #E2A89D",
"6X c #CCC5B9",
"7X c #D6C7B4",
"8X c #E5DBB8",
"9X c #BEB9C2",
"0X c #C2B6C1",
"qX c #C5BAC4",
"wX c #C9BDC5",
"eX c #CBBEC9",
"rX c #B7C6CD",
"tX c #CDC2CB",
"yX c #CAC6C9",
"uX c #D4C8CA",
"iX c #D5C9D2",
"pX c #D7D5D9",
"aX c #D4D2D1",
"sX c #E5DAD8",
"dX c #E1DBCF",
"fX c #F5EFDA",
"gX c #DEDEE3",
"hX c #E2DEE2",
"jX c #E9E6E8",
"kX c #FEFBEA",
"lX c #FEFDF4",
"zX c #F3FDFD",
"xX c white",
"cX c #FFFEFF",
"vX c #FDFEFE",
"bX c #FEFEFE",
"nX c #F7F5F8",
"mX c #EEEFF3",
/* pixels */
"cXcXcXcXcXcXcXcXcXcXcXcXcXcXvXzXzXmXzXrX) ) ) i r i r e w - * - > : : O : = a U >., 3 v.`._._.|.&.* $ * * ; $ ; ; ; ; $         ",
"cXcXcXcXcXcXcXcXcXcXcXcXcXcXvXvXzXzXzXrX{ ) ) ) n n d e e p u - ; : O O $ & x @.7., K (.`.`.(.W.p $ @ ; $ ; ; ; ; ; $ $         ",
"cXcXcXcXcXcXcXcXcXcXcXcXvXvXvXvXzXzXzXmX0.{ Z n Z M M Z b h h p d h p p w a J >.7.6 3.`.W.(.`.#.  $ $ ; - * p $ ; : $           ",
"cXcXcXcXcXcXcXcXcXcXcXcXcXvXvXvXzXzXzXzX0.%.Z g 1 & + & 8 s k h p h d p t a U @.>.F b.(.W.(.E.< % $ ; * ; ; $ : : $             ",
"cXcXcXcXcXcXcXcXcXcXcXcXcXcXcXcXvXvXvXnXi.Z u z I E ! W q 5 X % w w = = y l @.I 7.>.(.W.W.`.o.o = @ - $ * w $ ; $ @   .         ",
"cXcXcXcXcXcXcXcXcXcXcXcXcXcXcXcXlXnXvXvXR.P r.Q.L.K.K.K.K.Z.>.6 X X = = a G >.F r.b.S.c.W.v.1 & $ * ; ; = ; ; $   .           O ",
"cXcXcXcXcXcXcXcXcXcXcXcXcXcXcXcXcXvXzXlX|.D.{.L.G.Z.F.F.N.F.K.Z.D O # = y T +.F z.(.c.c.T.o.O O $ ; * ; - * ;                 $ ",
"cXcXcXcXcXcXcXcXcXcXcXcXcXcXcXcXcXvXbXkX|.].G.K.K.P.P.I.I.B.B.B.L.F % 1 0 >.I K `.c.c.z.p.1 % O ; $ $ * $ $ $         $     O $ ",
"cXcXcXcXcXcXcXcXcXcXcXcXcXcXcXcXcXcXlX$X].L.L.L.P.{.P.P.I.I.I.N.F.L.0 & G >.F <.v.b.y.A.| X $ $ * * * * * > @   .         $ $ $ ",
"cXcXcXcXcXcXcXcXcXcXcXcXcXcXcXbXcXlXdX].L.L.L.G.G.C.F.F.B.B.B.B.M.P.8., I K J K &.n.y.e.< %   $ @ @ @ @ @     .         $   O   ",
"cXcXcXcXcXcXcXcXcXcXcXcXbXbXcXbXlXkX6X].].L.G.C.D.D.D.Z.N.N.M.N.B.K.D.0 v 0 c a t.v.p.J # $ .         @     .                   ",
"cXcXcXcXcXcXcXcXcXcXcXcXbXbXbXbXbXzX|.D.D.D.D.G.C._.S.D.L.F.Z.Z.B.B.K.R @.J +.2.E.v.2.y * @ .           .               .   .   ",
"cXcXcXcXcXcXcXcXcXcXcXcXcXcXcXbXlXlX|.D.D.D.M.V.V._.V.x.x.h.7.M.^ ^ j.8.o.G 2.#.E.v.J =     @ @     @                     .     ",
"cXcXcXcXcXcXcXcXcXcXcXcXcXcXbXbXcXlX$X].].{.D.G.H.]._.H.D.D.Z.Z.Z.Z.C.8.U V O.O.Q.a.1 $   # @ @   @ @       . @               . ",
"cXvXvXcXcXcXcXcXcXcXcXcXcXcXbXbXbXlXaX].].L.L.D.G.C.G.D.C.H.F.Z.F.H.H.,.J +.| O.V.X.    # # # @ @ @       @     .     .   .     ",
"vXcXcXvXcXcXcXcXcXcXcXcXcXcXbXbXcXzXfX|.|.L.{.{.P.G.G.C.G.[.K.P.F.[.C.R G | } -.Y 9 O $ @ @ @ @ @   @ @ @ @                     ",
"cXcXcXcXcXcXcXcXcXcXcXcXcXcXcXcXcXcXbX6X].P.K.{.P.P.<XP.{.P.I.F.F.<XK o h g h h C $ $ $   O O O   @ @     $   @                 ",
"cXcXcXcXcXcXcXcXcXcXcXcXcXcXcXcXcXnXlXfX4XP.P.I.P.P.P.I.P.I.F.K.P.,.D 8 1 S $.e.V k = $ $ O X O   @ > @         O       O     @ ",
"cXcXcXcXcXcXcXcXcXcXcXcXcXcXcXcXcXbXkXkX8XP.{.P.P.I.P.I.I.I.P.I.x.,.(.k.k j -...O.e.@ w * $ : O > $ @ > @ @   @       @     >   ",
"cXcXcXcXcXcXcXcXcXcXcXcXcXcXcXcXbXlXlXkXfX8X<XP.P.U.[.[.P.K.Z.C.~ x.).4.c 1 =.1 u.R.@ g ; - - $ * $ $ > $ $ $ @ @ $ O   $   O   ",
"cXcXcXcXcXcXcXcXcXcXcXcXcXcXcXcXcXnXlXlXkXfX<XJ.x.x.x.x.h.h.8.D D J.l.,.K V q.k y.v.w e u - ; - * $ $ $ $ $ $ $ $   $ O   $   $ ",
"cXcXcXcXcXcXcXcXcXcXcXcXcXcXcXcXcXcXcXnXlXkX|.(.k.;.7.@.T v 6 , L J.b.' +.| 2.k t.E.@ w e p w w = - - * * * * $ $ $ $ $ $ $ $ $ ",
"cXcXcXcXcXcXcXcXcXcXcXcXcXcXcXcXzXvXcXcXcXnX`.4.`.` y k f a 7 a K l.T.Q U o.2.J e.E.# g e ; w - ; ; - ; $ : $ : $ $ $ $ $ $ $ $ ",
"cXcXcXcXcXcXcXcXcXcXcXcXcXcXcXcXzXvXcXcXnXcXeXy T.T.n n f t t y ;.f.T.f.;.o.3.&.J | u w e = - - * $ $ $ $ = $ $ $ $ $ $ $ $ $ $ ",
"cXcXcXcXcXcXcXcXcXcXcXcXcXcXcXcXcXzXcXcXvXvXpX/ 9.-.( Z n b d M e.;.(.x.+.1.7.| l 1 p u u * @ - : O $ O : $ O $ $ $   $ $ $ $   ",
"cXcXcXcXcXcXcXcXcXcXcXcXcXcXcXcXcXvXcXvXvXcXgX[ %.w.Z b d t f O.3.>.k.4.3.u.6.C V k p $ 4 ; = $ O :     . O         $   $     $ ",
"cXcXcXcXcXcXcXcXcXcXcXcXcXcXcXbXlXbXbXlXcXcXnX*.*.w.%.S d H q.+.+.#.7.7.u.r.X.z f x 7 > ; - $ = 7 7 : 7 & 4 4 $ : % : $ : $   $ ",
"cXcXcXcXcXcXcXcXcXcXcXcXcXcXcXcXbXlXbXbXcXcXvXe.[ Y.X.S / -.&.O.| >.7.u.u.$.G z ; u z u j 7 $ & 7 z x C s s C x 4 : $ $ ; $ @ * ",
"cXcXcXcXcXcXcXcXcXcXcXcXcXcXcXcXbXbXcXcXcXcXcXY.g e.w.X. .} S ..| =.6.7.r.>.P 9 w = w u j j : ; 5 5 s x z z P z & : O $ $   - $ ",
"cXcXcXcXcXcXcXcXcXcXcXcXcXcXcXcXcXlXvXcXcXcXcXtX>X>Xe.X.A / b ....+.y.7.r.@.s j f t > > 4 7 w 4 j 9 x z s & z 4 : & $ O     ; $ ",
"cXcXcXcXcXcXcXcXcXcXcXcXcXcXcXcXvXzXvXcXcXnXcXcXzXcX*XX...p.!.e.-.o.7.k.1.Y k m d b - 4 z j 5 x $.P v x z 9 5 O O O ; $ ; w @ $ ",
"cXcXcXcXcXcXcXcXcXcXcXcXcXcXcXcXvXvXvXnXcXcXnXcXzXcXzXpXmXvXzXA.6.o.1.z.o.G _ f Z N - 4 S h 5 X.s.Y v z z z 5 : O O & 4 / S @ u ",
"cXcXlXcXnXcXcXvXcXcXcXcXcXcXcXcXvXvXcXcXcXcXcXcXvXvXcXcXvXvXlXt.t.=.o.6.6.=.x B _ f = ; B h - 7 C P P v P 5 : + > : - - u u ] ..",
"jXcXcXnXcXcXvXbXcXcXcXcXcXcXcXcXcXvXcXcXvXvXcXcXvXvXvXnXvXlXpX| A.6.U 6.t...C } V p & 1 B j $ $ x 9 Y Y v 5 5 > > 4 z ] { s.-.*.",
"*XyXcXcXcXcXvXbXcXcXcXcXcXcXcXcXcXcXcXcXcXcXcXcXcXcXcXlXcXcXsXH z.z.o.=.6.O.} | B s y & h 4 $ w x 5 v X.x z g 4 N %.s.i.0.w.0.w.",
"yXaXcXcXcXcXcXcXcXcXcXcXcXcXcXcXcXcXcXcXcXcXcXcXvXvXcXcXlXlXpXo.u.(.1.+.=.=..._ k a & 1 h 1 $ p 4 : z P z N N [ *.*.*.*.*.0.0.0.",
"2XjXbXlXbXlXbXbXbXbXbXlXbXbXbXcXcXcXcXcXcXcXcXcXbXbXlXbXbXnX#X#.c.'.e.4.2.O.| H B a 1 k ..| y = j > : A } *.N ( *.0.0.*.%.] { { ",
"jXbXlXbXbXbXbXlXbXbXbXcXbXbXbXlXcXcXcXcXcXcXcXcXbXbXlXbXcXsX6.<.#X}.k.3.=.H | X.S a & k O.O.h = j - - %.X.*.n N ] ] { { { { ] ] ",
"jXbXnXcXlXnXcXcXbXcXbXbXbXlXbXbXcXcXcXcXcXcXbXbXbXbXlXlXlX`.U 2.(.(.k.3.&.A A B f ; # & f k t = p 4 w { ] %.N p [ ] ] { { { ( ] ",
"jXcXcXlXbXbXbXlXbXlXbXbXbXbXbXcXcXcXcXcXcXcXcXbXbXcXcXcXjXO.x <.k.4.' &.J A A B f ; ; y w y w t h } ] %. .%.( f }  .{ { ( { ( ] ",
"mXbXcXcXcXcXcXcXnXcXcXcXcXnXnXcXcXcXvXcXvXcXbXbXcXnXcXlX2X7 j 1.y.5.3.q._ _ ( f t = = e t d t w h [ X.] %.%.Z j  .[ *.*.w./.*.P ",
"nXbXcXcXcXnXcXcXcXvXnXcXnXyXmXcXcXcXcXcXzXcXcXcXcXvXcXbXjXa.t.2.p.n.q.5.( _ ( n y = = e t d t e p C X.[ X.[ -.!. Xs.s.[ e.a.] [ ",
"lXcXnXcXcXcXcXcXcXvXcXzXcXjXvXcXcXnXzXcXcXzXvXnXvXvXvXnXbXcXbXy.n.T.q.` r _ _ n e w w w p t e w s O.u.A.e.t. XgX:Xs.s.$.X.N P ) ",
"cXcXcXcXcXvXvXcXcXcXcXcXcXnXcXcXnXjXcXcXvXvXvXcXvXvXcXvXlXcXcXe.y.T.q.` # _ _ r e # w w p t e w ; P 6.dXaX$X!.^.>Xe.6.V.$.$.*.N ",
"cXzXnXvXcXzXcXcXvXmXpXvXpXpXcXcXjXyXnXgXgXcXmXcXvXvXjXmXcXnXhXe.y.y.&.` # ( ` = w w n = t t u w X.Y T 6XuX|.=.f $.$.A.Q.$.A.a.P ",
"pXyX9X9XiXpXpXyXpX9X X9X+X.XqXyXOX!.+X X^.>X%X%X%X%X~.^..X~.^.&.5.q.5.J = e M f w f _ w y d t & $.@.c D.6XW.C 7 v E 4X|.W u.A.x ",
"~./.!.!.R.R.!.R.!.!.!.!.R.R.~. X>XOX+X+XR.a.T.Y.Y.Y.Y.a.i.a.T.&.&.q.q.f = y ` ) = M X.1 d y w : I W 6 H <.+.c , E r.V.#.T 6.s.v ",
"jXjXjXmXgXjXjXhXhXgXpXpXaX9XyXyXyX>X%X+X~.^.^..XoX.XT.~.~.^.!.&.&.p.5.y o y ' f o V X.= d d w & E ! I o.C T E >.8.V.W v $.r.6.I ",
"nXjXsXsXsXaXuX3X3X3X3X}.`.^.E.T.q.q.p.p.T..X^..XoXXXoX&X=X&XOX....<.k.;.L L m.Q D n.#.- p e w , ~ d.! 8.].A.6.].C.7.! 0 F 1.z.I ",
"oXW.T.1X`.y.4Xk.`.z.T.p.y.y.q.q.p.T..XoX&X0X1X1X0XqX0X1XqX@XE.| _ +.).l.f.Q m.m.D z.=.- d p t + ^ ^ W ! Q.6.T h.h.M.8.R E 8.r.I ",
"yX7.l.sX`.1.sX1.#Xu.T.y.q.q.n..XoXoX&X&X&X=X-X1X-XOX&X-X*X2X>X| &.=.,Xl.Q Q m.l.L g.<.: g n t + ^ 8.W $.u.P $.].C.j.z.,.@.6.6.I ",
"dX#.c.kX_.1.6X<.W.e.n.v.T.~.XXXXoXoXXX@X@XoXoX@X-XoX&X;X*X:X=X| ` <.T.k.Q Q m.m.L 4.=.& d d e % E ! W v Y P v E 7.z.8.! R 6.V.$.",
"4X$.A.6Xa.$.A.e.n.T.~.XXoX%X%X%XoX&X&X&X4X&X&X&X*X-X&X&X-X&X&X_ &.&.4.y.:.Q m.m.K 5.5.1 j d u = v T s P X.P z q >.8.>.E I @.$.T ",
"Q.#.t.A.u.t.R.E.XXoXoXoX%X;X%X;X&X-X-X&X1XeXiXeXeX0X1X&X@X&X:X` H 2.`.(.l.d.f.,X:.;.+.< f g d - 9 v C z P *.P 9 D >.! R >.v Y Y ",
"a.e.t.R.R.^.%X+X*X*X0XqX0X0X0X0X0XwX0X-X0XeXiXuXeXeXqX0X-X1XoX=.M <.T.(.m.f.f.5Xg.;.+.1 p h e w 7 9 V g g P z 9 0 E >.W $.c z C ",
"Y.!.^. X XOXOX%X*X*X1X:X;X-XqXeXeXwXwX1X0XeXeXeXeXeX0X0X1X-Xv.% y V B E.m.d.f.5Xk.K +.y f d u w < 7 j j - 4 4 z 6 W R E U x x [ ",
".X.XoXoX&X&X;X-X=X-X:X1X1X3X2XtXeXeXeXeXeXeX0X0X0X9XqX0X:X:Xe.a k V } +X).f.f.,Xk.+.+.y a f u e 1 1 & < & & 6 9 6 T R q I s p B ",
".XoX&X;X9X-X-X-X-X1XwXwX2XtXuX2X1X0XwXeXeXeXwXeX9X9XqX:X0X:X2.y _ _ V e.x.g.d.,X4.,.;.< a p d - 1 c k a a 9 s 7 6 T >., 9 z p N ",
"oX%X;X;X;X9X0XeXqXwXeXwXqXwX2XwX0X0XqXqX1X1XwX0XqX0XqXtXtXqX-.m M f _ v.4.l.f.,X4.y.3.y h h d w t V k c v 6 6 6 6 E 8.0 6 1 - > ",
"oX%X&X&X1X0XwXwXeXwX0X0X1X1X=X-X0X0X1X&X#X1X1X1X1X;X%XqXyX:X-.f / m &.`.c.4.Q ,X4.W.<.a p h p ; a J J c F l 0 6 , R >.0 8 7 p u ",
"&X;X-X:X1XwXwX2XuXtXeXuXeXeXqXqX0X0X-X;X&X4X&XoXoX&X&X&X>X:X..p b B O.W.c.k.f.).k.`.#.f h u h ; f | U o.+.o.Y G c R 8.0 , l ; h ",
";X*X=X-X=X1X2X2X1XwXeXeXeXuXeXeXeX0X-X;X&X&X1X1XOX&X&XoX>X*XA f b B O.`.W.c.y.).>.n.=.y b h d ; & ; & 2 6 6 v V F @.7.D 2 6 $ * ",
"%XOX@X=X3X1X=X#X2X2X1X=X1X0XqXqX0X0X1X0X0X1X@XoXoXXXXX.XOXXXH p N b ..E.W.J K T.L J O.p g b 4 & $ ; s 8 < 2 < o , J ,.F F v % ; ",
"9X9XtXwX1X#X=X2X2X=X#X@XoX&X&X&X;X1X&X&X@X@XOXXXXXXX.XXXXX+Xe.t b b ' Q.6.2 ;.:.2 U } b p e h 4 w - k 9 < 2 & < , F 7.R L J % j "
};
